<?xml version="1.0" encoding="utf-8"?>
<!-- Generated by IcoMoon.io -->
<!DOCTYPE svg PUBLIC "-//W3C//DTD SVG 1.1//EN" "http://www.w3.org/Graphics/SVG/1.1/DTD/svg11.dtd">
<svg version="1.1" xmlns="http://www.w3.org/2000/svg" xmlns:xlink="http://www.w3.org/1999/xlink" width="512" height="512" viewBox="0 0 512 512">
<g>
</g>
	<path d="M12.851 252.375c154.44-174.357 316.529-173.936 486.288 1.526-185.538 209.183-341.279 152.043-486.288-1.526v0zM256 223.898c-20.347 0-37.007 14.459-37.007 32.215 0 17.521 16.661 31.938 37.007 31.938 20.603 0 37.243-14.418 37.243-31.938 0-17.756-16.64-32.215-37.243-32.215v0zM256 186.665c-42.476 0-77.107 31.119-77.107 69.458 0 38.082 34.631 69.202 77.107 69.202 42.526 0 77.127-31.12 77.127-69.202-0.010-38.339-34.611-69.458-77.127-69.458z" fill="#000000" />
</svg>
